<svg width="672" height="599" viewBox="0 0 672 599" fill="none" xmlns="http://www.w3.org/2000/svg">
<mask id="path-1-outside-1_152_981" maskUnits="userSpaceOnUse" x="-37.2625" y="-18.2672" width="744.052" height="647.177" fill="black">
<rect fill="white" x="-37.2625" y="-18.2672" width="744.052" height="647.177"/>
<path fill-rule="evenodd" clip-rule="evenodd" d="M396.834 353C397.499 351.08 400.075 350.421 401.408 351.953C401.496 352.055 401.592 352.149 401.696 352.234L402.632 353.006C404.415 354.478 406.479 355.573 408.698 356.227L410.015 356.615C411.202 356.927 413.634 357.63 413.867 357.942C413.999 358.12 414.624 358.168 415.331 358.223C416.182 358.289 417.153 358.364 417.525 358.685C417.951 359.052 419.39 359.022 420.624 358.996C421.363 358.981 422.028 358.967 422.357 359.041C423.06 359.199 425.549 358.693 426.706 358.421L430.96 357.021C431.735 356.766 434.101 355 436.05 353.47C437.3 352.489 438.392 351.326 439.329 350.045L440.996 347.765C441.855 346.59 442.556 345.308 443.081 343.951C443.362 342.993 443.993 340.991 444.268 340.641C444.43 340.435 444.749 339.315 445.052 338.128C445.443 336.601 445.586 335.024 445.54 333.449L445.356 327.147L445.247 324.607C445.173 322.897 444.865 321.205 444.33 319.579L438.01 300.372C418.951 261.233 366.834 254.542 332.318 285.523C300.089 317.536 303.486 374.802 348.449 397.794C376.744 414.295 418.235 399.773 436.9 389.034C441.523 386.373 442.01 380.417 438.549 376.374C434.982 372.208 428.726 371.797 424.274 375.018C408.1 386.719 390.907 391.859 370.47 387.142C350.841 383.66 340.895 373.358 333.545 357.937C333.362 357.501 333.181 357.07 333.002 356.643C330.821 351.443 328.925 346.924 327.798 343.477C326.428 339.288 326.84 334.429 327.388 330.054C329.458 313.533 341.156 293.623 359.267 286.386C376.825 279.96 411.21 277.728 423.161 312.069C431.361 335.635 431.168 335.839 430.126 336.937C429.738 337.346 429.233 337.878 428.999 339.782C428.874 340.791 428.628 341.788 428.134 342.679L427.959 342.995C427.628 343.593 427.144 344.093 426.721 344.631C426.456 344.968 425.988 345.276 425.362 345.688C425.175 345.81 424.975 345.942 424.761 346.087C423.83 346.717 423.292 347.057 422.998 347.153L420.945 347.829C420.798 347.877 419.53 347.484 419.092 347.141C418.654 346.799 417.779 346.114 417.682 345.821L417.345 344.797C417.268 344.563 414.771 338.292 413.532 335.185L410.98 327.43C410.749 326.727 407.408 318.55 405.767 314.549L405.073 312.441C404.67 311.216 404.132 310.04 403.468 308.935L402.967 308.099C402.292 306.974 401.559 305.672 400.292 305.323C400.039 305.253 399.798 304.999 399.537 304.725C399.244 304.417 398.927 304.083 398.54 303.953C398.213 303.843 397.74 303.488 397.239 303.112C396.62 302.649 395.958 302.152 395.473 302.043C394.771 301.885 393.588 301.42 393.084 301.207L387.768 299.215C386.25 298.646 384.656 298.312 383.06 298.019C382.954 298 382.849 297.98 382.748 297.959C382.138 297.835 381.455 297.736 380.772 297.636C380.089 297.537 379.406 297.437 378.796 297.313C377.576 297.066 376.552 296.917 375.38 296.815C375.031 296.785 374.721 296.742 374.43 296.702C373.743 296.607 373.157 296.526 372.402 296.66C371.917 296.747 371.711 296.675 371.473 296.592C371.185 296.492 370.851 296.375 369.913 296.506C368.987 296.635 368.935 296.667 368.755 296.776C368.604 296.869 368.361 297.017 367.419 297.327C366.249 297.712 365.525 297.687 364.901 297.666C364.43 297.65 364.016 297.636 363.511 297.802C362.956 297.984 362.424 298.232 361.861 298.493C361.233 298.785 360.567 299.095 359.793 299.35C359.258 299.526 358.782 299.618 358.351 299.701C357.598 299.847 356.979 299.966 356.418 300.46C355.536 301.237 354.949 301.43 354.069 301.72C353.189 302.009 348.526 305.231 348.045 305.648C344.123 309.047 334.27 328.02 336.865 336.897C340.005 354.839 349.581 364.175 359.858 369.713C376.853 377.379 391.549 368.273 396.834 353ZM350.266 331.109C350.191 332.264 350.231 333.425 350.416 334.567C350.512 335.153 350.611 335.69 350.686 335.917L353.768 345.283C353.924 345.758 355.008 347.425 355.592 348.322C355.728 348.53 355.836 348.697 355.9 348.798C356.07 349.066 356.458 349.628 356.846 350.189C357.234 350.751 357.622 351.313 357.791 351.581C358.131 352.118 359.1 353.583 359.538 353.925C359.661 354.022 359.846 354.149 360.059 354.296C360.606 354.673 361.343 355.181 361.728 355.638C361.845 355.777 361.941 355.9 362.028 356.011C362.337 356.406 362.529 356.652 363.137 356.958C363.917 357.35 367.234 358.042 368.064 358.094C368.396 358.114 368.837 358.151 369.278 358.187C369.94 358.242 370.602 358.297 370.895 358.297C371.095 358.298 371.807 358.103 372.634 357.877C373.821 357.552 375.245 357.161 375.734 357.192C376.151 357.218 377.7 356.452 379.211 355.635C380.802 354.775 382.128 353.505 383.131 352.001L384.317 350.011C385.676 347.732 386.534 345.191 386.835 342.557L386.942 341.62C387.041 340.753 387.076 339.881 387.047 339.009C386.991 337.324 386.695 335.655 386.168 334.054L383.688 326.518C383.612 326.287 383.166 325.489 382.634 324.576C381.588 322.78 380.191 321.221 378.632 319.843C377.816 319.122 377.143 318.487 377.086 318.311C376.941 317.872 374.316 315.33 372.998 315.277C372.411 315.254 371.719 315.008 371.006 314.754C370.118 314.439 369.199 314.112 368.413 314.191C367.409 314.291 365.745 314.121 364.686 314.012C364.251 313.967 363.918 313.933 363.776 313.933C363.711 313.933 363.623 313.929 363.517 313.925C362.815 313.895 361.317 313.833 360.551 314.508C360.075 314.926 359.274 315.357 358.56 315.742C357.947 316.072 357.398 316.368 357.172 316.592C356.951 316.811 356.622 316.999 356.26 317.207C355.817 317.461 355.324 317.743 354.919 318.145C354.751 318.311 354.534 318.51 354.299 318.727C353.503 319.459 352.493 320.388 352.416 320.914C352.335 321.46 351.528 322.828 351.134 323.444C350.921 323.785 350.513 324.719 350.587 325.733C350.678 327 350.525 328.51 350.424 329.192C350.379 329.497 350.32 330.293 350.266 331.109Z"/>
<path fill-rule="evenodd" clip-rule="evenodd" d="M668.893 326.01C668.868 326.353 668.827 326.669 668.77 326.996C671.157 328.553 672.126 332.118 669.034 334.317C652.849 345.823 635.234 355.261 617.286 364.211C607.312 369.751 597.308 375.237 587.305 380.723C576.525 386.634 565.746 392.545 555.007 398.523C539.313 407.264 523.835 416.37 508.359 425.476C486.308 438.45 464.261 451.422 441.598 463.332C429.275 469.809 416.929 476.226 404.588 482.64C342.729 514.791 281.004 546.872 223.027 586.025C221.765 586.878 220.523 587.741 219.299 588.593C207.95 596.484 198.075 603.352 186.639 591.568C169.19 573.592 154.738 549.918 141.003 527.418C136.415 519.903 131.908 512.518 127.395 505.521C126.652 504.37 125.909 503.218 125.166 502.066C103.047 467.778 80.689 433.122 61.1493 397.316C55.8275 387.568 50.7251 377.717 45.6272 367.875C40.4307 357.842 35.2389 347.818 29.8241 337.921C28.2662 335.186 26.7519 332.423 25.2416 329.653C18.1169 317.076 10.5188 304.761 1.92851 292.988C0.778162 291.411 0.704219 288.607 2.17865 287.171C77.259 213.816 174.089 160.732 265.524 110.606L265.617 110.556C309.987 86.2252 355.51 63.9035 402.4 44.833C408.596 42.3143 414.807 39.9011 421.004 37.4934C438.708 30.6147 456.299 23.7801 473.118 14.6542C474.695 13.7973 476.33 12.8606 478.013 11.8967C487.244 6.60951 497.902 0.504389 508.24 2.26397C526.5 5.36776 536.205 28.0447 542.959 43.8276C543.394 44.8422 543.816 45.8284 544.227 46.779C553.513 68.2436 562.32 89.9709 571.1 111.694C574.566 118.309 577.897 124.975 580.867 131.78C586.231 144.056 591.479 156.379 596.727 168.703C606.35 191.302 615.973 213.9 626.316 236.198C633.012 250.646 640.465 264.554 647.924 278.474C652.589 287.18 657.257 295.891 661.743 304.742C662.04 305.328 662.406 306.016 662.815 306.784C665.445 311.727 669.848 320 668.893 326.01ZM545.105 78.2567C541.42 68.9718 537.737 59.6877 533.783 50.5239L533.383 49.5952C527.581 36.1438 521.448 21.9242 510.32 16.3822C510.259 16.8157 510.168 17.2393 510.026 17.6273C503.962 34.084 497.262 50.2961 490.563 66.5073C482.945 84.9396 475.328 103.371 468.648 122.158C462.038 140.728 456.094 159.524 450.148 178.324C447.674 186.144 445.201 193.965 442.679 201.771C443.557 205.654 444.059 209.634 444.561 213.607C445.369 220.005 446.175 226.385 448.54 232.315C448.988 232.318 449.418 232.446 449.695 232.788C450.175 232.949 450.655 233.108 451.136 233.267C451.953 233.538 452.771 233.809 453.583 234.087C451.632 228.694 450.855 223.004 450.076 217.295C449.376 212.16 448.673 207.009 447.111 202.045C446.488 200.071 449.46 198.988 450.152 200.952C451.915 205.97 452.778 211.264 453.641 216.553C454.718 223.159 455.794 229.757 458.62 235.802C473.132 240.836 487.53 246.226 501.924 251.615C515.29 256.619 528.652 261.622 542.1 266.337C546.737 267.963 551.385 269.561 556.034 271.159C570.179 276.022 584.327 280.885 598.171 286.547C605.447 289.523 612.538 292.897 619.625 296.268C629.345 300.892 639.055 305.511 649.216 309.093C646.631 298.064 639.641 286.376 633.154 275.528C629.584 269.559 626.167 263.844 623.719 258.633C599.559 207.241 577.162 154.947 555.006 102.666C551.583 94.5832 548.344 86.4196 545.105 78.2567ZM212.826 583.473C212.591 583.625 212.354 583.779 212.117 583.933C212.111 583.955 212.105 583.974 212.1 583.993C212.095 584.012 212.089 584.03 212.082 584.049C213.035 583.447 214.003 582.787 214.966 582.116C214.857 582.183 214.749 582.25 214.641 582.316C214.39 582.471 214.141 582.625 213.89 582.785C213.541 583.007 213.186 583.238 212.826 583.473ZM482.16 62.445C481.787 62.2723 481.506 61.9777 481.399 61.5732C480.43 64.422 479.484 67.272 478.545 70.1054C476.508 76.2452 474.497 82.3068 472.324 88.1087C471.83 89.4242 471.355 90.746 470.879 92.0684C470.429 93.3194 469.978 94.571 469.512 95.8183C471.113 91.9651 473.44 86.4226 476.136 80.0434C478.01 74.1446 480.029 68.2838 482.16 62.445ZM434.97 196.187C431.259 207.862 427.554 219.52 423.685 231.13C429.373 215.407 434.837 199.607 440.019 183.69C442.639 175.64 445.172 167.574 447.703 159.513C451.016 148.965 454.326 138.427 457.823 127.945C451.776 144.973 445.895 162.065 440.367 179.271C438.555 184.911 436.762 190.551 434.97 196.187ZM441.486 226.821C441.81 227.88 442.194 229.138 442.365 230.344C442.527 230.396 442.689 230.449 442.851 230.502C443.013 230.555 443.176 230.609 443.338 230.661C441.736 224.954 441.322 219 440.907 213.034C440.797 211.452 440.687 209.869 440.555 208.29C440.096 209.69 439.618 211.084 439.14 212.479C438.767 213.567 438.394 214.656 438.03 215.748C438.448 217.145 438.905 218.532 439.361 219.919C439.995 221.845 440.63 223.773 441.164 225.733C441.254 226.059 441.366 226.426 441.486 226.821ZM496.397 257.209C508.671 261.425 520.945 265.68 533.315 269.989C534.549 270.419 535.783 270.856 537.016 271.302C523.912 266.454 510.846 261.49 497.803 256.465C497.432 256.856 496.968 257.146 496.397 257.209ZM542.069 273.164C554.338 277.779 566.628 283.035 578.963 288.311C586.569 291.564 594.191 294.824 601.836 297.946C600.067 297.148 598.298 296.347 596.53 295.547C581.927 288.941 567.321 282.333 552.4 276.93C548.953 275.684 545.51 274.428 542.069 273.164ZM433.962 227.735C435.696 228.267 437.424 228.801 439.15 229.348C438.919 228.07 438.635 226.796 438.351 225.526C438.232 224.992 438.113 224.46 437.998 223.927C437.642 222.266 437.286 220.605 436.948 218.938C436.672 219.755 436.397 220.571 436.123 221.388C435.41 223.508 434.698 225.627 433.962 227.735ZM432.629 233.561C432.46 233.446 432.283 233.327 432.105 233.208C432.071 233.325 432.031 233.443 431.989 233.555C432.099 233.558 432.204 233.558 432.309 233.558C432.414 233.558 432.52 233.558 432.629 233.561ZM440.249 233.809L440.242 233.805C440.242 233.805 440.248 233.803 440.249 233.809ZM261.854 353.136C261.476 350.088 261.099 347.041 260.952 343.973C260.581 343.927 260.209 343.881 259.838 343.835C257.708 343.57 255.582 343.306 253.452 343.029C254.049 345.332 255.003 348.159 256.035 351.22C257.803 356.46 259.802 362.389 260.648 367.557C261.035 366.31 261.41 365.059 261.785 363.808C262.079 362.829 262.372 361.85 262.672 360.874C262.492 358.286 262.173 355.711 261.854 353.136ZM31.2755 304.403C31.2836 304.314 31.2914 304.228 31.3118 304.139C31.0463 304.092 30.7813 304.046 30.5163 304C30.2513 303.955 29.9863 303.909 29.7208 303.862C29.8622 303.917 30.0029 303.972 30.1437 304.028C30.5133 304.174 30.8837 304.32 31.2708 304.454C31.2724 304.437 31.274 304.42 31.2755 304.403ZM263.322 389.51C262.077 394.12 260.849 398.67 259.492 403.028C259.25 403.806 259.021 404.59 258.792 405.374C258.605 406.018 258.417 406.663 258.222 407.304C262.991 393.53 267.302 379.625 270.774 365.485C267.722 373.212 265.497 381.453 263.322 389.51ZM266.23 349.113C266.672 347.664 267.113 346.215 267.547 344.762C266.247 344.612 264.954 344.461 263.659 344.303C264.048 346.605 264.595 348.881 265.142 351.156C265.211 351.442 265.28 351.728 265.348 352.014C265.64 351.046 265.935 350.08 266.23 349.113ZM288.976 529.936L294.973 526.211C388.677 467.931 485.153 417.755 583.468 367.97C587.156 366.104 591.831 364.023 596.988 361.728C616.642 352.981 643.281 341.125 648.784 326.191C649.352 324.658 649.695 323.082 649.937 321.48C628.011 316.252 606.978 307.018 585.992 297.804C571.931 291.631 557.89 285.466 543.616 280.523C534.385 277.323 525.051 274.175 515.679 271.015C486.797 261.274 457.564 251.415 429.917 239.571C427.473 246.67 425.115 253.903 422.743 261.176C420.524 267.983 419.823 269.83 417.5 276.63C413.003 273.521 410.262 272.118 405 270.193C409.699 254.927 413.731 242.061 418.194 226.697C424.877 203.69 431.551 180.711 438.985 158.178C446.29 136.023 454.246 114.121 462.206 92.2081C464.877 84.8573 467.548 77.5052 470.194 70.142C471.456 66.6339 472.673 63.0732 473.896 59.4954C478.784 45.1985 483.765 30.63 492.047 18.0644C479.8 22.2059 467.634 26.5369 455.582 31.1128C447.97 35.0479 440.367 38.8884 432.781 41.8044C407.901 51.3559 383.297 61.4464 359.079 72.5713C352.806 75.4558 346.52 78.3836 340.242 81.3549C334.011 84.3696 327.788 87.4081 321.581 90.4939C318.504 92.0239 315.426 93.553 312.348 95.0823C301.378 100.532 290.404 105.984 279.455 111.488C221.525 141.566 164.495 175.318 111.363 212.584C100.757 221.016 90.3462 229.696 79.8573 238.44C77.9809 240.005 76.102 241.571 74.219 243.139C67.9049 248.391 60.7334 252.816 53.5675 257.238C49.8313 259.544 46.0967 261.849 42.4858 264.269C38.2919 267.677 34.1806 271.155 30.4182 274.814C29.7428 275.473 28.8395 276.291 27.8103 277.222C26.8891 278.056 25.8671 278.981 24.8175 279.964C22.1834 283.974 20.965 288.148 20.8228 292.414C32.6968 294.274 44.4818 296.584 56.226 299.15C59.3749 299.479 62.5277 299.788 65.6815 300.098C77.4368 301.251 89.2056 302.405 100.837 304.621C106.257 305.659 111.638 306.88 117.012 308.117C134.375 310.391 151.72 312.779 169.064 315.168C217.357 321.819 262.431 328.333 311.108 332.5C311.263 335.103 311.29 337.822 311.034 339.896L311.841 348C301.221 347.78 292.418 347.194 281.787 346.218C273.45 380.57 261.831 413.58 250.133 446.811C248.451 451.589 246.768 456.371 245.092 461.163C237.57 482.677 232.382 504.717 227.195 526.752C223.49 542.491 219.785 558.228 215.232 573.768C215.348 573.703 215.465 573.635 215.582 573.567C215.7 573.499 215.818 573.431 215.935 573.366C217.515 572.513 219.074 571.628 220.633 570.743C221.598 570.195 222.563 569.647 223.532 569.107C242.248 555.737 262.913 544.327 283.401 533.016C285.261 531.989 287.12 530.963 288.976 529.936ZM24.6539 309.355C24.8522 309.637 25.0778 309.963 25.219 310.192C31.6369 320.541 37.4804 331.222 43.1397 342.004C50.6842 355.338 58.6409 368.487 66.598 381.636C73.0826 392.352 79.5674 403.069 85.8295 413.886C101.582 441.1 119.278 467.151 136.972 493.198C148.319 509.903 159.666 526.606 170.498 543.613C171.992 545.959 173.727 549.263 175.653 552.932C180.895 562.916 187.553 575.598 194.644 578.993C196.213 579.743 197.771 580.018 199.312 580.063C199.352 579.866 199.396 579.661 199.443 579.462C199.762 569.856 202.817 560.268 205.94 550.868C212.853 521.258 220.526 491.7 230.319 463.026C231.259 460.269 232.242 457.527 233.225 454.784C233.468 454.108 233.71 453.432 233.952 452.756C239.182 435.593 244.598 418.489 250.014 401.385C252.282 394.222 254.551 387.058 256.805 379.89C256.45 379.83 256.117 379.638 256.004 379.314C255.354 377.528 255.556 375.758 255.763 373.947C255.885 372.876 256.009 371.791 255.959 370.681C255.798 367.033 254.771 363.45 253.765 359.941C253.619 359.431 253.474 358.923 253.331 358.416C251.875 353.252 250.582 347.982 250.457 342.623C249.618 342.51 248.776 342.398 247.934 342.287C247.091 342.175 246.247 342.063 245.407 341.949C245.567 348.28 247.134 354.461 248.696 360.628C250.577 368.051 252.453 375.455 251.868 383.077C251.803 383.938 250.429 384.003 250.194 383.207C246.372 370.213 242.656 355.721 243.053 342.114C243.058 341.967 243.124 341.865 243.191 341.76C243.215 341.723 243.239 341.685 243.261 341.645C235.488 340.554 227.751 339.413 220.044 338.261C194.483 336.305 169.18 333.397 143.68 329.348C137.195 328.318 130.711 327.309 124.229 326.3C101.814 322.811 79.4217 319.326 57.1225 315.029C55.5027 314.717 53.7692 314.41 51.9586 314.09C42.7468 312.461 31.5397 310.48 23.1619 305.62C23.6105 306.863 24.1125 308.109 24.6539 309.355Z"/>
</mask>
<path fill-rule="evenodd" clip-rule="evenodd" d="M396.834 353C397.499 351.08 400.075 350.421 401.408 351.953C401.496 352.055 401.592 352.149 401.696 352.234L402.632 353.006C404.415 354.478 406.479 355.573 408.698 356.227L410.015 356.615C411.202 356.927 413.634 357.63 413.867 357.942C413.999 358.12 414.624 358.168 415.331 358.223C416.182 358.289 417.153 358.364 417.525 358.685C417.951 359.052 419.39 359.022 420.624 358.996C421.363 358.981 422.028 358.967 422.357 359.041C423.06 359.199 425.549 358.693 426.706 358.421L430.96 357.021C431.735 356.766 434.101 355 436.05 353.47C437.3 352.489 438.392 351.326 439.329 350.045L440.996 347.765C441.855 346.59 442.556 345.308 443.081 343.951C443.362 342.993 443.993 340.991 444.268 340.641C444.43 340.435 444.749 339.315 445.052 338.128C445.443 336.601 445.586 335.024 445.54 333.449L445.356 327.147L445.247 324.607C445.173 322.897 444.865 321.205 444.33 319.579L438.01 300.372C418.951 261.233 366.834 254.542 332.318 285.523C300.089 317.536 303.486 374.802 348.449 397.794C376.744 414.295 418.235 399.773 436.9 389.034C441.523 386.373 442.01 380.417 438.549 376.374C434.982 372.208 428.726 371.797 424.274 375.018C408.1 386.719 390.907 391.859 370.47 387.142C350.841 383.66 340.895 373.358 333.545 357.937C333.362 357.501 333.181 357.07 333.002 356.643C330.821 351.443 328.925 346.924 327.798 343.477C326.428 339.288 326.84 334.429 327.388 330.054C329.458 313.533 341.156 293.623 359.267 286.386C376.825 279.96 411.21 277.728 423.161 312.069C431.361 335.635 431.168 335.839 430.126 336.937C429.738 337.346 429.233 337.878 428.999 339.782C428.874 340.791 428.628 341.788 428.134 342.679L427.959 342.995C427.628 343.593 427.144 344.093 426.721 344.631C426.456 344.968 425.988 345.276 425.362 345.688C425.175 345.81 424.975 345.942 424.761 346.087C423.83 346.717 423.292 347.057 422.998 347.153L420.945 347.829C420.798 347.877 419.53 347.484 419.092 347.141C418.654 346.799 417.779 346.114 417.682 345.821L417.345 344.797C417.268 344.563 414.771 338.292 413.532 335.185L410.98 327.43C410.749 326.727 407.408 318.55 405.767 314.549L405.073 312.441C404.67 311.216 404.132 310.04 403.468 308.935L402.967 308.099C402.292 306.974 401.559 305.672 400.292 305.323C400.039 305.253 399.798 304.999 399.537 304.725C399.244 304.417 398.927 304.083 398.54 303.953C398.213 303.843 397.74 303.488 397.239 303.112C396.62 302.649 395.958 302.152 395.473 302.043C394.771 301.885 393.588 301.42 393.084 301.207L387.768 299.215C386.25 298.646 384.656 298.312 383.06 298.019C382.954 298 382.849 297.98 382.748 297.959C382.138 297.835 381.455 297.736 380.772 297.636C380.089 297.537 379.406 297.437 378.796 297.313C377.576 297.066 376.552 296.917 375.38 296.815C375.031 296.785 374.721 296.742 374.43 296.702C373.743 296.607 373.157 296.526 372.402 296.66C371.917 296.747 371.711 296.675 371.473 296.592C371.185 296.492 370.851 296.375 369.913 296.506C368.987 296.635 368.935 296.667 368.755 296.776C368.604 296.869 368.361 297.017 367.419 297.327C366.249 297.712 365.525 297.687 364.901 297.666C364.43 297.65 364.016 297.636 363.511 297.802C362.956 297.984 362.424 298.232 361.861 298.493C361.233 298.785 360.567 299.095 359.793 299.35C359.258 299.526 358.782 299.618 358.351 299.701C357.598 299.847 356.979 299.966 356.418 300.46C355.536 301.237 354.949 301.43 354.069 301.72C353.189 302.009 348.526 305.231 348.045 305.648C344.123 309.047 334.27 328.02 336.865 336.897C340.005 354.839 349.581 364.175 359.858 369.713C376.853 377.379 391.549 368.273 396.834 353ZM350.266 331.109C350.191 332.264 350.231 333.425 350.416 334.567C350.512 335.153 350.611 335.69 350.686 335.917L353.768 345.283C353.924 345.758 355.008 347.425 355.592 348.322C355.728 348.53 355.836 348.697 355.9 348.798C356.07 349.066 356.458 349.628 356.846 350.189C357.234 350.751 357.622 351.313 357.791 351.581C358.131 352.118 359.1 353.583 359.538 353.925C359.661 354.022 359.846 354.149 360.059 354.296C360.606 354.673 361.343 355.181 361.728 355.638C361.845 355.777 361.941 355.9 362.028 356.011C362.337 356.406 362.529 356.652 363.137 356.958C363.917 357.35 367.234 358.042 368.064 358.094C368.396 358.114 368.837 358.151 369.278 358.187C369.94 358.242 370.602 358.297 370.895 358.297C371.095 358.298 371.807 358.103 372.634 357.877C373.821 357.552 375.245 357.161 375.734 357.192C376.151 357.218 377.7 356.452 379.211 355.635C380.802 354.775 382.128 353.505 383.131 352.001L384.317 350.011C385.676 347.732 386.534 345.191 386.835 342.557L386.942 341.62C387.041 340.753 387.076 339.881 387.047 339.009C386.991 337.324 386.695 335.655 386.168 334.054L383.688 326.518C383.612 326.287 383.166 325.489 382.634 324.576C381.588 322.78 380.191 321.221 378.632 319.843C377.816 319.122 377.143 318.487 377.086 318.311C376.941 317.872 374.316 315.33 372.998 315.277C372.411 315.254 371.719 315.008 371.006 314.754C370.118 314.439 369.199 314.112 368.413 314.191C367.409 314.291 365.745 314.121 364.686 314.012C364.251 313.967 363.918 313.933 363.776 313.933C363.711 313.933 363.623 313.929 363.517 313.925C362.815 313.895 361.317 313.833 360.551 314.508C360.075 314.926 359.274 315.357 358.56 315.742C357.947 316.072 357.398 316.368 357.172 316.592C356.951 316.811 356.622 316.999 356.26 317.207C355.817 317.461 355.324 317.743 354.919 318.145C354.751 318.311 354.534 318.51 354.299 318.727C353.503 319.459 352.493 320.388 352.416 320.914C352.335 321.46 351.528 322.828 351.134 323.444C350.921 323.785 350.513 324.719 350.587 325.733C350.678 327 350.525 328.51 350.424 329.192C350.379 329.497 350.32 330.293 350.266 331.109Z" fill="white" fill-opacity="0.09"/>
<path fill-rule="evenodd" clip-rule="evenodd" d="M668.893 326.01C668.868 326.353 668.827 326.669 668.77 326.996C671.157 328.553 672.126 332.118 669.034 334.317C652.849 345.823 635.234 355.261 617.286 364.211C607.312 369.751 597.308 375.237 587.305 380.723C576.525 386.634 565.746 392.545 555.007 398.523C539.313 407.264 523.835 416.37 508.359 425.476C486.308 438.45 464.261 451.422 441.598 463.332C429.275 469.809 416.929 476.226 404.588 482.64C342.729 514.791 281.004 546.872 223.027 586.025C221.765 586.878 220.523 587.741 219.299 588.593C207.95 596.484 198.075 603.352 186.639 591.568C169.19 573.592 154.738 549.918 141.003 527.418C136.415 519.903 131.908 512.518 127.395 505.521C126.652 504.37 125.909 503.218 125.166 502.066C103.047 467.778 80.689 433.122 61.1493 397.316C55.8275 387.568 50.7251 377.717 45.6272 367.875C40.4307 357.842 35.2389 347.818 29.8241 337.921C28.2662 335.186 26.7519 332.423 25.2416 329.653C18.1169 317.076 10.5188 304.761 1.92851 292.988C0.778162 291.411 0.704219 288.607 2.17865 287.171C77.259 213.816 174.089 160.732 265.524 110.606L265.617 110.556C309.987 86.2252 355.51 63.9035 402.4 44.833C408.596 42.3143 414.807 39.9011 421.004 37.4934C438.708 30.6147 456.299 23.7801 473.118 14.6542C474.695 13.7973 476.33 12.8606 478.013 11.8967C487.244 6.60951 497.902 0.504389 508.24 2.26397C526.5 5.36776 536.205 28.0447 542.959 43.8276C543.394 44.8422 543.816 45.8284 544.227 46.779C553.513 68.2436 562.32 89.9709 571.1 111.694C574.566 118.309 577.897 124.975 580.867 131.78C586.231 144.056 591.479 156.379 596.727 168.703C606.35 191.302 615.973 213.9 626.316 236.198C633.012 250.646 640.465 264.554 647.924 278.474C652.589 287.18 657.257 295.891 661.743 304.742C662.04 305.328 662.406 306.016 662.815 306.784C665.445 311.727 669.848 320 668.893 326.01ZM545.105 78.2567C541.42 68.9718 537.737 59.6877 533.783 50.5239L533.383 49.5952C527.581 36.1438 521.448 21.9242 510.32 16.3822C510.259 16.8157 510.168 17.2393 510.026 17.6273C503.962 34.084 497.262 50.2961 490.563 66.5073C482.945 84.9396 475.328 103.371 468.648 122.158C462.038 140.728 456.094 159.524 450.148 178.324C447.674 186.144 445.201 193.965 442.679 201.771C443.557 205.654 444.059 209.634 444.561 213.607C445.369 220.005 446.175 226.385 448.54 232.315C448.988 232.318 449.418 232.446 449.695 232.788C450.175 232.949 450.655 233.108 451.136 233.267C451.953 233.538 452.771 233.809 453.583 234.087C451.632 228.694 450.855 223.004 450.076 217.295C449.376 212.16 448.673 207.009 447.111 202.045C446.488 200.071 449.46 198.988 450.152 200.952C451.915 205.97 452.778 211.264 453.641 216.553C454.718 223.159 455.794 229.757 458.62 235.802C473.132 240.836 487.53 246.226 501.924 251.615C515.29 256.619 528.652 261.622 542.1 266.337C546.737 267.963 551.385 269.561 556.034 271.159C570.179 276.022 584.327 280.885 598.171 286.547C605.447 289.523 612.538 292.897 619.625 296.268C629.345 300.892 639.055 305.511 649.216 309.093C646.631 298.064 639.641 286.376 633.154 275.528C629.584 269.559 626.167 263.844 623.719 258.633C599.559 207.241 577.162 154.947 555.006 102.666C551.583 94.5832 548.344 86.4196 545.105 78.2567ZM212.826 583.473C212.591 583.625 212.354 583.779 212.117 583.933C212.111 583.955 212.105 583.974 212.1 583.993C212.095 584.012 212.089 584.03 212.082 584.049C213.035 583.447 214.003 582.787 214.966 582.116C214.857 582.183 214.749 582.25 214.641 582.316C214.39 582.471 214.141 582.625 213.89 582.785C213.541 583.007 213.186 583.238 212.826 583.473ZM482.16 62.445C481.787 62.2723 481.506 61.9777 481.399 61.5732C480.43 64.422 479.484 67.272 478.545 70.1054C476.508 76.2452 474.497 82.3068 472.324 88.1087C471.83 89.4242 471.355 90.746 470.879 92.0684C470.429 93.3194 469.978 94.571 469.512 95.8183C471.113 91.9651 473.44 86.4226 476.136 80.0434C478.01 74.1446 480.029 68.2838 482.16 62.445ZM434.97 196.187C431.259 207.862 427.554 219.52 423.685 231.13C429.373 215.407 434.837 199.607 440.019 183.69C442.639 175.64 445.172 167.574 447.703 159.513C451.016 148.965 454.326 138.427 457.823 127.945C451.776 144.973 445.895 162.065 440.367 179.271C438.555 184.911 436.762 190.551 434.97 196.187ZM441.486 226.821C441.81 227.88 442.194 229.138 442.365 230.344C442.527 230.396 442.689 230.449 442.851 230.502C443.013 230.555 443.176 230.609 443.338 230.661C441.736 224.954 441.322 219 440.907 213.034C440.797 211.452 440.687 209.869 440.555 208.29C440.096 209.69 439.618 211.084 439.14 212.479C438.767 213.567 438.394 214.656 438.03 215.748C438.448 217.145 438.905 218.532 439.361 219.919C439.995 221.845 440.63 223.773 441.164 225.733C441.254 226.059 441.366 226.426 441.486 226.821ZM496.397 257.209C508.671 261.425 520.945 265.68 533.315 269.989C534.549 270.419 535.783 270.856 537.016 271.302C523.912 266.454 510.846 261.49 497.803 256.465C497.432 256.856 496.968 257.146 496.397 257.209ZM542.069 273.164C554.338 277.779 566.628 283.035 578.963 288.311C586.569 291.564 594.191 294.824 601.836 297.946C600.067 297.148 598.298 296.347 596.53 295.547C581.927 288.941 567.321 282.333 552.4 276.93C548.953 275.684 545.51 274.428 542.069 273.164ZM433.962 227.735C435.696 228.267 437.424 228.801 439.15 229.348C438.919 228.07 438.635 226.796 438.351 225.526C438.232 224.992 438.113 224.46 437.998 223.927C437.642 222.266 437.286 220.605 436.948 218.938C436.672 219.755 436.397 220.571 436.123 221.388C435.41 223.508 434.698 225.627 433.962 227.735ZM432.629 233.561C432.46 233.446 432.283 233.327 432.105 233.208C432.071 233.325 432.031 233.443 431.989 233.555C432.099 233.558 432.204 233.558 432.309 233.558C432.414 233.558 432.52 233.558 432.629 233.561ZM440.249 233.809L440.242 233.805C440.242 233.805 440.248 233.803 440.249 233.809ZM261.854 353.136C261.476 350.088 261.099 347.041 260.952 343.973C260.581 343.927 260.209 343.881 259.838 343.835C257.708 343.57 255.582 343.306 253.452 343.029C254.049 345.332 255.003 348.159 256.035 351.22C257.803 356.46 259.802 362.389 260.648 367.557C261.035 366.31 261.41 365.059 261.785 363.808C262.079 362.829 262.372 361.85 262.672 360.874C262.492 358.286 262.173 355.711 261.854 353.136ZM31.2755 304.403C31.2836 304.314 31.2914 304.228 31.3118 304.139C31.0463 304.092 30.7813 304.046 30.5163 304C30.2513 303.955 29.9863 303.909 29.7208 303.862C29.8622 303.917 30.0029 303.972 30.1437 304.028C30.5133 304.174 30.8837 304.32 31.2708 304.454C31.2724 304.437 31.274 304.42 31.2755 304.403ZM263.322 389.51C262.077 394.12 260.849 398.67 259.492 403.028C259.25 403.806 259.021 404.59 258.792 405.374C258.605 406.018 258.417 406.663 258.222 407.304C262.991 393.53 267.302 379.625 270.774 365.485C267.722 373.212 265.497 381.453 263.322 389.51ZM266.23 349.113C266.672 347.664 267.113 346.215 267.547 344.762C266.247 344.612 264.954 344.461 263.659 344.303C264.048 346.605 264.595 348.881 265.142 351.156C265.211 351.442 265.28 351.728 265.348 352.014C265.64 351.046 265.935 350.08 266.23 349.113ZM288.976 529.936L294.973 526.211C388.677 467.931 485.153 417.755 583.468 367.97C587.156 366.104 591.831 364.023 596.988 361.728C616.642 352.981 643.281 341.125 648.784 326.191C649.352 324.658 649.695 323.082 649.937 321.48C628.011 316.252 606.978 307.018 585.992 297.804C571.931 291.631 557.89 285.466 543.616 280.523C534.385 277.323 525.051 274.175 515.679 271.015C486.797 261.274 457.564 251.415 429.917 239.571C427.473 246.67 425.115 253.903 422.743 261.176C420.524 267.983 419.823 269.83 417.5 276.63C413.003 273.521 410.262 272.118 405 270.193C409.699 254.927 413.731 242.061 418.194 226.697C424.877 203.69 431.551 180.711 438.985 158.178C446.29 136.023 454.246 114.121 462.206 92.2081C464.877 84.8573 467.548 77.5052 470.194 70.142C471.456 66.6339 472.673 63.0732 473.896 59.4954C478.784 45.1985 483.765 30.63 492.047 18.0644C479.8 22.2059 467.634 26.5369 455.582 31.1128C447.97 35.0479 440.367 38.8884 432.781 41.8044C407.901 51.3559 383.297 61.4464 359.079 72.5713C352.806 75.4558 346.52 78.3836 340.242 81.3549C334.011 84.3696 327.788 87.4081 321.581 90.4939C318.504 92.0239 315.426 93.553 312.348 95.0823C301.378 100.532 290.404 105.984 279.455 111.488C221.525 141.566 164.495 175.318 111.363 212.584C100.757 221.016 90.3462 229.696 79.8573 238.44C77.9809 240.005 76.102 241.571 74.219 243.139C67.9049 248.391 60.7334 252.816 53.5675 257.238C49.8313 259.544 46.0967 261.849 42.4858 264.269C38.2919 267.677 34.1806 271.155 30.4182 274.814C29.7428 275.473 28.8395 276.291 27.8103 277.222C26.8891 278.056 25.8671 278.981 24.8175 279.964C22.1834 283.974 20.965 288.148 20.8228 292.414C32.6968 294.274 44.4818 296.584 56.226 299.15C59.3749 299.479 62.5277 299.788 65.6815 300.098C77.4368 301.251 89.2056 302.405 100.837 304.621C106.257 305.659 111.638 306.88 117.012 308.117C134.375 310.391 151.72 312.779 169.064 315.168C217.357 321.819 262.431 328.333 311.108 332.5C311.263 335.103 311.29 337.822 311.034 339.896L311.841 348C301.221 347.78 292.418 347.194 281.787 346.218C273.45 380.57 261.831 413.58 250.133 446.811C248.451 451.589 246.768 456.371 245.092 461.163C237.57 482.677 232.382 504.717 227.195 526.752C223.49 542.491 219.785 558.228 215.232 573.768C215.348 573.703 215.465 573.635 215.582 573.567C215.7 573.499 215.818 573.431 215.935 573.366C217.515 572.513 219.074 571.628 220.633 570.743C221.598 570.195 222.563 569.647 223.532 569.107C242.248 555.737 262.913 544.327 283.401 533.016C285.261 531.989 287.12 530.963 288.976 529.936ZM24.6539 309.355C24.8522 309.637 25.0778 309.963 25.219 310.192C31.6369 320.541 37.4804 331.222 43.1397 342.004C50.6842 355.338 58.6409 368.487 66.598 381.636C73.0826 392.352 79.5674 403.069 85.8295 413.886C101.582 441.1 119.278 467.151 136.972 493.198C148.319 509.903 159.666 526.606 170.498 543.613C171.992 545.959 173.727 549.263 175.653 552.932C180.895 562.916 187.553 575.598 194.644 578.993C196.213 579.743 197.771 580.018 199.312 580.063C199.352 579.866 199.396 579.661 199.443 579.462C199.762 569.856 202.817 560.268 205.94 550.868C212.853 521.258 220.526 491.7 230.319 463.026C231.259 460.269 232.242 457.527 233.225 454.784C233.468 454.108 233.71 453.432 233.952 452.756C239.182 435.593 244.598 418.489 250.014 401.385C252.282 394.222 254.551 387.058 256.805 379.89C256.45 379.83 256.117 379.638 256.004 379.314C255.354 377.528 255.556 375.758 255.763 373.947C255.885 372.876 256.009 371.791 255.959 370.681C255.798 367.033 254.771 363.45 253.765 359.941C253.619 359.431 253.474 358.923 253.331 358.416C251.875 353.252 250.582 347.982 250.457 342.623C249.618 342.51 248.776 342.398 247.934 342.287C247.091 342.175 246.247 342.063 245.407 341.949C245.567 348.28 247.134 354.461 248.696 360.628C250.577 368.051 252.453 375.455 251.868 383.077C251.803 383.938 250.429 384.003 250.194 383.207C246.372 370.213 242.656 355.721 243.053 342.114C243.058 341.967 243.124 341.865 243.191 341.76C243.215 341.723 243.239 341.685 243.261 341.645C235.488 340.554 227.751 339.413 220.044 338.261C194.483 336.305 169.18 333.397 143.68 329.348C137.195 328.318 130.711 327.309 124.229 326.3C101.814 322.811 79.4217 319.326 57.1225 315.029C55.5027 314.717 53.7692 314.41 51.9586 314.09C42.7468 312.461 31.5397 310.48 23.1619 305.62C23.6105 306.863 24.1125 308.109 24.6539 309.355Z" fill="white" fill-opacity="0.09"/>
<path fill-rule="evenodd" clip-rule="evenodd" d="M396.834 353C397.499 351.08 400.075 350.421 401.408 351.953C401.496 352.055 401.592 352.149 401.696 352.234L402.632 353.006C404.415 354.478 406.479 355.573 408.698 356.227L410.015 356.615C411.202 356.927 413.634 357.63 413.867 357.942C413.999 358.12 414.624 358.168 415.331 358.223C416.182 358.289 417.153 358.364 417.525 358.685C417.951 359.052 419.39 359.022 420.624 358.996C421.363 358.981 422.028 358.967 422.357 359.041C423.06 359.199 425.549 358.693 426.706 358.421L430.96 357.021C431.735 356.766 434.101 355 436.05 353.47C437.3 352.489 438.392 351.326 439.329 350.045L440.996 347.765C441.855 346.59 442.556 345.308 443.081 343.951C443.362 342.993 443.993 340.991 444.268 340.641C444.43 340.435 444.749 339.315 445.052 338.128C445.443 336.601 445.586 335.024 445.54 333.449L445.356 327.147L445.247 324.607C445.173 322.897 444.865 321.205 444.33 319.579L438.01 300.372C418.951 261.233 366.834 254.542 332.318 285.523C300.089 317.536 303.486 374.802 348.449 397.794C376.744 414.295 418.235 399.773 436.9 389.034C441.523 386.373 442.01 380.417 438.549 376.374C434.982 372.208 428.726 371.797 424.274 375.018C408.1 386.719 390.907 391.859 370.47 387.142C350.841 383.66 340.895 373.358 333.545 357.937C333.362 357.501 333.181 357.07 333.002 356.643C330.821 351.443 328.925 346.924 327.798 343.477C326.428 339.288 326.84 334.429 327.388 330.054C329.458 313.533 341.156 293.623 359.267 286.386C376.825 279.96 411.21 277.728 423.161 312.069C431.361 335.635 431.168 335.839 430.126 336.937C429.738 337.346 429.233 337.878 428.999 339.782C428.874 340.791 428.628 341.788 428.134 342.679L427.959 342.995C427.628 343.593 427.144 344.093 426.721 344.631C426.456 344.968 425.988 345.276 425.362 345.688C425.175 345.81 424.975 345.942 424.761 346.087C423.83 346.717 423.292 347.057 422.998 347.153L420.945 347.829C420.798 347.877 419.53 347.484 419.092 347.141C418.654 346.799 417.779 346.114 417.682 345.821L417.345 344.797C417.268 344.563 414.771 338.292 413.532 335.185L410.98 327.43C410.749 326.727 407.408 318.55 405.767 314.549L405.073 312.441C404.67 311.216 404.132 310.04 403.468 308.935L402.967 308.099C402.292 306.974 401.559 305.672 400.292 305.323C400.039 305.253 399.798 304.999 399.537 304.725C399.244 304.417 398.927 304.083 398.54 303.953C398.213 303.843 397.74 303.488 397.239 303.112C396.62 302.649 395.958 302.152 395.473 302.043C394.771 301.885 393.588 301.42 393.084 301.207L387.768 299.215C386.25 298.646 384.656 298.312 383.06 298.019C382.954 298 382.849 297.98 382.748 297.959C382.138 297.835 381.455 297.736 380.772 297.636C380.089 297.537 379.406 297.437 378.796 297.313C377.576 297.066 376.552 296.917 375.38 296.815C375.031 296.785 374.721 296.742 374.43 296.702C373.743 296.607 373.157 296.526 372.402 296.66C371.917 296.747 371.711 296.675 371.473 296.592C371.185 296.492 370.851 296.375 369.913 296.506C368.987 296.635 368.935 296.667 368.755 296.776C368.604 296.869 368.361 297.017 367.419 297.327C366.249 297.712 365.525 297.687 364.901 297.666C364.43 297.65 364.016 297.636 363.511 297.802C362.956 297.984 362.424 298.232 361.861 298.493C361.233 298.785 360.567 299.095 359.793 299.35C359.258 299.526 358.782 299.618 358.351 299.701C357.598 299.847 356.979 299.966 356.418 300.46C355.536 301.237 354.949 301.43 354.069 301.72C353.189 302.009 348.526 305.231 348.045 305.648C344.123 309.047 334.27 328.02 336.865 336.897C340.005 354.839 349.581 364.175 359.858 369.713C376.853 377.379 391.549 368.273 396.834 353ZM350.266 331.109C350.191 332.264 350.231 333.425 350.416 334.567C350.512 335.153 350.611 335.69 350.686 335.917L353.768 345.283C353.924 345.758 355.008 347.425 355.592 348.322C355.728 348.53 355.836 348.697 355.9 348.798C356.07 349.066 356.458 349.628 356.846 350.189C357.234 350.751 357.622 351.313 357.791 351.581C358.131 352.118 359.1 353.583 359.538 353.925C359.661 354.022 359.846 354.149 360.059 354.296C360.606 354.673 361.343 355.181 361.728 355.638C361.845 355.777 361.941 355.9 362.028 356.011C362.337 356.406 362.529 356.652 363.137 356.958C363.917 357.35 367.234 358.042 368.064 358.094C368.396 358.114 368.837 358.151 369.278 358.187C369.94 358.242 370.602 358.297 370.895 358.297C371.095 358.298 371.807 358.103 372.634 357.877C373.821 357.552 375.245 357.161 375.734 357.192C376.151 357.218 377.7 356.452 379.211 355.635C380.802 354.775 382.128 353.505 383.131 352.001L384.317 350.011C385.676 347.732 386.534 345.191 386.835 342.557L386.942 341.62C387.041 340.753 387.076 339.881 387.047 339.009C386.991 337.324 386.695 335.655 386.168 334.054L383.688 326.518C383.612 326.287 383.166 325.489 382.634 324.576C381.588 322.78 380.191 321.221 378.632 319.843C377.816 319.122 377.143 318.487 377.086 318.311C376.941 317.872 374.316 315.33 372.998 315.277C372.411 315.254 371.719 315.008 371.006 314.754C370.118 314.439 369.199 314.112 368.413 314.191C367.409 314.291 365.745 314.121 364.686 314.012C364.251 313.967 363.918 313.933 363.776 313.933C363.711 313.933 363.623 313.929 363.517 313.925C362.815 313.895 361.317 313.833 360.551 314.508C360.075 314.926 359.274 315.357 358.56 315.742C357.947 316.072 357.398 316.368 357.172 316.592C356.951 316.811 356.622 316.999 356.26 317.207C355.817 317.461 355.324 317.743 354.919 318.145C354.751 318.311 354.534 318.51 354.299 318.727C353.503 319.459 352.493 320.388 352.416 320.914C352.335 321.46 351.528 322.828 351.134 323.444C350.921 323.785 350.513 324.719 350.587 325.733C350.678 327 350.525 328.51 350.424 329.192C350.379 329.497 350.32 330.293 350.266 331.109Z" stroke="white" stroke-opacity="0.08" stroke-width="2" mask="url(#path-1-outside-1_152_981)"/>
<path fill-rule="evenodd" clip-rule="evenodd" d="M668.893 326.01C668.868 326.353 668.827 326.669 668.77 326.996C671.157 328.553 672.126 332.118 669.034 334.317C652.849 345.823 635.234 355.261 617.286 364.211C607.312 369.751 597.308 375.237 587.305 380.723C576.525 386.634 565.746 392.545 555.007 398.523C539.313 407.264 523.835 416.37 508.359 425.476C486.308 438.45 464.261 451.422 441.598 463.332C429.275 469.809 416.929 476.226 404.588 482.64C342.729 514.791 281.004 546.872 223.027 586.025C221.765 586.878 220.523 587.741 219.299 588.593C207.95 596.484 198.075 603.352 186.639 591.568C169.19 573.592 154.738 549.918 141.003 527.418C136.415 519.903 131.908 512.518 127.395 505.521C126.652 504.37 125.909 503.218 125.166 502.066C103.047 467.778 80.689 433.122 61.1493 397.316C55.8275 387.568 50.7251 377.717 45.6272 367.875C40.4307 357.842 35.2389 347.818 29.8241 337.921C28.2662 335.186 26.7519 332.423 25.2416 329.653C18.1169 317.076 10.5188 304.761 1.92851 292.988C0.778162 291.411 0.704219 288.607 2.17865 287.171C77.259 213.816 174.089 160.732 265.524 110.606L265.617 110.556C309.987 86.2252 355.51 63.9035 402.4 44.833C408.596 42.3143 414.807 39.9011 421.004 37.4934C438.708 30.6147 456.299 23.7801 473.118 14.6542C474.695 13.7973 476.33 12.8606 478.013 11.8967C487.244 6.60951 497.902 0.504389 508.24 2.26397C526.5 5.36776 536.205 28.0447 542.959 43.8276C543.394 44.8422 543.816 45.8284 544.227 46.779C553.513 68.2436 562.32 89.9709 571.1 111.694C574.566 118.309 577.897 124.975 580.867 131.78C586.231 144.056 591.479 156.379 596.727 168.703C606.35 191.302 615.973 213.9 626.316 236.198C633.012 250.646 640.465 264.554 647.924 278.474C652.589 287.18 657.257 295.891 661.743 304.742C662.04 305.328 662.406 306.016 662.815 306.784C665.445 311.727 669.848 320 668.893 326.01ZM545.105 78.2567C541.42 68.9718 537.737 59.6877 533.783 50.5239L533.383 49.5952C527.581 36.1438 521.448 21.9242 510.32 16.3822C510.259 16.8157 510.168 17.2393 510.026 17.6273C503.962 34.084 497.262 50.2961 490.563 66.5073C482.945 84.9396 475.328 103.371 468.648 122.158C462.038 140.728 456.094 159.524 450.148 178.324C447.674 186.144 445.201 193.965 442.679 201.771C443.557 205.654 444.059 209.634 444.561 213.607C445.369 220.005 446.175 226.385 448.54 232.315C448.988 232.318 449.418 232.446 449.695 232.788C450.175 232.949 450.655 233.108 451.136 233.267C451.953 233.538 452.771 233.809 453.583 234.087C451.632 228.694 450.855 223.004 450.076 217.295C449.376 212.16 448.673 207.009 447.111 202.045C446.488 200.071 449.46 198.988 450.152 200.952C451.915 205.97 452.778 211.264 453.641 216.553C454.718 223.159 455.794 229.757 458.62 235.802C473.132 240.836 487.53 246.226 501.924 251.615C515.29 256.619 528.652 261.622 542.1 266.337C546.737 267.963 551.385 269.561 556.034 271.159C570.179 276.022 584.327 280.885 598.171 286.547C605.447 289.523 612.538 292.897 619.625 296.268C629.345 300.892 639.055 305.511 649.216 309.093C646.631 298.064 639.641 286.376 633.154 275.528C629.584 269.559 626.167 263.844 623.719 258.633C599.559 207.241 577.162 154.947 555.006 102.666C551.583 94.5832 548.344 86.4196 545.105 78.2567ZM212.826 583.473C212.591 583.625 212.354 583.779 212.117 583.933C212.111 583.955 212.105 583.974 212.1 583.993C212.095 584.012 212.089 584.03 212.082 584.049C213.035 583.447 214.003 582.787 214.966 582.116C214.857 582.183 214.749 582.25 214.641 582.316C214.39 582.471 214.141 582.625 213.89 582.785C213.541 583.007 213.186 583.238 212.826 583.473ZM482.16 62.445C481.787 62.2723 481.506 61.9777 481.399 61.5732C480.43 64.422 479.484 67.272 478.545 70.1054C476.508 76.2452 474.497 82.3068 472.324 88.1087C471.83 89.4242 471.355 90.746 470.879 92.0684C470.429 93.3194 469.978 94.571 469.512 95.8183C471.113 91.9651 473.44 86.4226 476.136 80.0434C478.01 74.1446 480.029 68.2838 482.16 62.445ZM434.97 196.187C431.259 207.862 427.554 219.52 423.685 231.13C429.373 215.407 434.837 199.607 440.019 183.69C442.639 175.64 445.172 167.574 447.703 159.513C451.016 148.965 454.326 138.427 457.823 127.945C451.776 144.973 445.895 162.065 440.367 179.271C438.555 184.911 436.762 190.551 434.97 196.187ZM441.486 226.821C441.81 227.88 442.194 229.138 442.365 230.344C442.527 230.396 442.689 230.449 442.851 230.502C443.013 230.555 443.176 230.609 443.338 230.661C441.736 224.954 441.322 219 440.907 213.034C440.797 211.452 440.687 209.869 440.555 208.29C440.096 209.69 439.618 211.084 439.14 212.479C438.767 213.567 438.394 214.656 438.03 215.748C438.448 217.145 438.905 218.532 439.361 219.919C439.995 221.845 440.63 223.773 441.164 225.733C441.254 226.059 441.366 226.426 441.486 226.821ZM496.397 257.209C508.671 261.425 520.945 265.68 533.315 269.989C534.549 270.419 535.783 270.856 537.016 271.302C523.912 266.454 510.846 261.49 497.803 256.465C497.432 256.856 496.968 257.146 496.397 257.209ZM542.069 273.164C554.338 277.779 566.628 283.035 578.963 288.311C586.569 291.564 594.191 294.824 601.836 297.946C600.067 297.148 598.298 296.347 596.53 295.547C581.927 288.941 567.321 282.333 552.4 276.93C548.953 275.684 545.51 274.428 542.069 273.164ZM433.962 227.735C435.696 228.267 437.424 228.801 439.15 229.348C438.919 228.07 438.635 226.796 438.351 225.526C438.232 224.992 438.113 224.46 437.998 223.927C437.642 222.266 437.286 220.605 436.948 218.938C436.672 219.755 436.397 220.571 436.123 221.388C435.41 223.508 434.698 225.627 433.962 227.735ZM432.629 233.561C432.46 233.446 432.283 233.327 432.105 233.208C432.071 233.325 432.031 233.443 431.989 233.555C432.099 233.558 432.204 233.558 432.309 233.558C432.414 233.558 432.52 233.558 432.629 233.561ZM440.249 233.809L440.242 233.805C440.242 233.805 440.248 233.803 440.249 233.809ZM261.854 353.136C261.476 350.088 261.099 347.041 260.952 343.973C260.581 343.927 260.209 343.881 259.838 343.835C257.708 343.57 255.582 343.306 253.452 343.029C254.049 345.332 255.003 348.159 256.035 351.22C257.803 356.46 259.802 362.389 260.648 367.557C261.035 366.31 261.41 365.059 261.785 363.808C262.079 362.829 262.372 361.85 262.672 360.874C262.492 358.286 262.173 355.711 261.854 353.136ZM31.2755 304.403C31.2836 304.314 31.2914 304.228 31.3118 304.139C31.0463 304.092 30.7813 304.046 30.5163 304C30.2513 303.955 29.9863 303.909 29.7208 303.862C29.8622 303.917 30.0029 303.972 30.1437 304.028C30.5133 304.174 30.8837 304.32 31.2708 304.454C31.2724 304.437 31.274 304.42 31.2755 304.403ZM263.322 389.51C262.077 394.12 260.849 398.67 259.492 403.028C259.25 403.806 259.021 404.59 258.792 405.374C258.605 406.018 258.417 406.663 258.222 407.304C262.991 393.53 267.302 379.625 270.774 365.485C267.722 373.212 265.497 381.453 263.322 389.51ZM266.23 349.113C266.672 347.664 267.113 346.215 267.547 344.762C266.247 344.612 264.954 344.461 263.659 344.303C264.048 346.605 264.595 348.881 265.142 351.156C265.211 351.442 265.28 351.728 265.348 352.014C265.64 351.046 265.935 350.08 266.23 349.113ZM288.976 529.936L294.973 526.211C388.677 467.931 485.153 417.755 583.468 367.97C587.156 366.104 591.831 364.023 596.988 361.728C616.642 352.981 643.281 341.125 648.784 326.191C649.352 324.658 649.695 323.082 649.937 321.48C628.011 316.252 606.978 307.018 585.992 297.804C571.931 291.631 557.89 285.466 543.616 280.523C534.385 277.323 525.051 274.175 515.679 271.015C486.797 261.274 457.564 251.415 429.917 239.571C427.473 246.67 425.115 253.903 422.743 261.176C420.524 267.983 419.823 269.83 417.5 276.63C413.003 273.521 410.262 272.118 405 270.193C409.699 254.927 413.731 242.061 418.194 226.697C424.877 203.69 431.551 180.711 438.985 158.178C446.29 136.023 454.246 114.121 462.206 92.2081C464.877 84.8573 467.548 77.5052 470.194 70.142C471.456 66.6339 472.673 63.0732 473.896 59.4954C478.784 45.1985 483.765 30.63 492.047 18.0644C479.8 22.2059 467.634 26.5369 455.582 31.1128C447.97 35.0479 440.367 38.8884 432.781 41.8044C407.901 51.3559 383.297 61.4464 359.079 72.5713C352.806 75.4558 346.52 78.3836 340.242 81.3549C334.011 84.3696 327.788 87.4081 321.581 90.4939C318.504 92.0239 315.426 93.553 312.348 95.0823C301.378 100.532 290.404 105.984 279.455 111.488C221.525 141.566 164.495 175.318 111.363 212.584C100.757 221.016 90.3462 229.696 79.8573 238.44C77.9809 240.005 76.102 241.571 74.219 243.139C67.9049 248.391 60.7334 252.816 53.5675 257.238C49.8313 259.544 46.0967 261.849 42.4858 264.269C38.2919 267.677 34.1806 271.155 30.4182 274.814C29.7428 275.473 28.8395 276.291 27.8103 277.222C26.8891 278.056 25.8671 278.981 24.8175 279.964C22.1834 283.974 20.965 288.148 20.8228 292.414C32.6968 294.274 44.4818 296.584 56.226 299.15C59.3749 299.479 62.5277 299.788 65.6815 300.098C77.4368 301.251 89.2056 302.405 100.837 304.621C106.257 305.659 111.638 306.88 117.012 308.117C134.375 310.391 151.72 312.779 169.064 315.168C217.357 321.819 262.431 328.333 311.108 332.5C311.263 335.103 311.29 337.822 311.034 339.896L311.841 348C301.221 347.78 292.418 347.194 281.787 346.218C273.45 380.57 261.831 413.58 250.133 446.811C248.451 451.589 246.768 456.371 245.092 461.163C237.57 482.677 232.382 504.717 227.195 526.752C223.49 542.491 219.785 558.228 215.232 573.768C215.348 573.703 215.465 573.635 215.582 573.567C215.7 573.499 215.818 573.431 215.935 573.366C217.515 572.513 219.074 571.628 220.633 570.743C221.598 570.195 222.563 569.647 223.532 569.107C242.248 555.737 262.913 544.327 283.401 533.016C285.261 531.989 287.12 530.963 288.976 529.936ZM24.6539 309.355C24.8522 309.637 25.0778 309.963 25.219 310.192C31.6369 320.541 37.4804 331.222 43.1397 342.004C50.6842 355.338 58.6409 368.487 66.598 381.636C73.0826 392.352 79.5674 403.069 85.8295 413.886C101.582 441.1 119.278 467.151 136.972 493.198C148.319 509.903 159.666 526.606 170.498 543.613C171.992 545.959 173.727 549.263 175.653 552.932C180.895 562.916 187.553 575.598 194.644 578.993C196.213 579.743 197.771 580.018 199.312 580.063C199.352 579.866 199.396 579.661 199.443 579.462C199.762 569.856 202.817 560.268 205.94 550.868C212.853 521.258 220.526 491.7 230.319 463.026C231.259 460.269 232.242 457.527 233.225 454.784C233.468 454.108 233.71 453.432 233.952 452.756C239.182 435.593 244.598 418.489 250.014 401.385C252.282 394.222 254.551 387.058 256.805 379.89C256.45 379.83 256.117 379.638 256.004 379.314C255.354 377.528 255.556 375.758 255.763 373.947C255.885 372.876 256.009 371.791 255.959 370.681C255.798 367.033 254.771 363.45 253.765 359.941C253.619 359.431 253.474 358.923 253.331 358.416C251.875 353.252 250.582 347.982 250.457 342.623C249.618 342.51 248.776 342.398 247.934 342.287C247.091 342.175 246.247 342.063 245.407 341.949C245.567 348.28 247.134 354.461 248.696 360.628C250.577 368.051 252.453 375.455 251.868 383.077C251.803 383.938 250.429 384.003 250.194 383.207C246.372 370.213 242.656 355.721 243.053 342.114C243.058 341.967 243.124 341.865 243.191 341.76C243.215 341.723 243.239 341.685 243.261 341.645C235.488 340.554 227.751 339.413 220.044 338.261C194.483 336.305 169.18 333.397 143.68 329.348C137.195 328.318 130.711 327.309 124.229 326.3C101.814 322.811 79.4217 319.326 57.1225 315.029C55.5027 314.717 53.7692 314.41 51.9586 314.09C42.7468 312.461 31.5397 310.48 23.1619 305.62C23.6105 306.863 24.1125 308.109 24.6539 309.355Z" stroke="white" stroke-opacity="0.08" stroke-width="2" mask="url(#path-1-outside-1_152_981)"/>
</svg>
