<svg width="40" height="40" viewBox="0 0 40 40" fill="none" xmlns="http://www.w3.org/2000/svg">
<path fill-rule="evenodd" clip-rule="evenodd" d="M16.1783 26.1783L29.1667 13.19L32.155 16.1783C32.3881 16.4114 32.685 16.57 33.0083 16.6343C33.3315 16.6986 33.6666 16.6656 33.9711 16.5395C34.2756 16.4134 34.5359 16.1998 34.719 15.9258C34.9021 15.6518 34.9999 15.3296 35 15V6.66668L34.9983 6.58668C34.9794 6.15839 34.7955 5.75403 34.4851 5.45827C34.1748 5.16252 33.762 4.9983 33.3333 5.00001H25C24.6704 5.00008 24.3483 5.09787 24.0742 5.28101C23.8002 5.46415 23.5867 5.72442 23.4605 6.02892C23.3344 6.33342 23.3014 6.66848 23.3657 6.99173C23.43 7.31499 23.5887 7.61193 23.8217 7.84501L26.81 10.8333L13.8217 23.8217C13.6625 23.9754 13.5355 24.1593 13.4482 24.3627C13.3608 24.566 13.3148 24.7847 13.3129 25.006C13.311 25.2273 13.3532 25.4468 13.437 25.6516C13.5208 25.8564 13.6445 26.0425 13.801 26.199C13.9575 26.3555 14.1436 26.4792 14.3484 26.563C14.5532 26.6469 14.7727 26.689 14.994 26.6871C15.2153 26.6852 15.434 26.6392 15.6373 26.5518C15.8407 26.4645 16.0246 26.3375 16.1783 26.1783ZM6.66667 5.00001C6.22464 5.00001 5.80072 5.17561 5.48816 5.48817C5.17559 5.80073 5 6.22465 5 6.66668V30C5 31.3261 5.52678 32.5979 6.46447 33.5355C7.40215 34.4732 8.67392 35 10 35H30C31.3261 35 32.5979 34.4732 33.5355 33.5355C34.4732 32.5979 35 31.3261 35 30V21.6667C35 21.2247 34.8244 20.8007 34.5118 20.4882C34.1993 20.1756 33.7754 20 33.3333 20C32.8913 20 32.4674 20.1756 32.1548 20.4882C31.8423 20.8007 31.6667 21.2247 31.6667 21.6667V30C31.6667 30.442 31.4911 30.866 31.1785 31.1785C30.866 31.4911 30.442 31.6667 30 31.6667H10C9.55797 31.6667 9.13405 31.4911 8.82149 31.1785C8.50893 30.866 8.33333 30.442 8.33333 30V8.33335H18.3333C18.7754 8.33335 19.1993 8.15775 19.5118 7.84519C19.8244 7.53263 20 7.10871 20 6.66668C20 6.22465 19.8244 5.80073 19.5118 5.48817C19.1993 5.17561 18.7754 5.00001 18.3333 5.00001H6.66667Z" fill="#535353"/>
</svg>
