<svg width="60" height="61" viewBox="0 0 60 61" fill="none" xmlns="http://www.w3.org/2000/svg">
<path d="M30 1.6001L55 10.3501V30.5001C55 40.8176 48.6675 48.0301 42.76 52.5076C39.1965 55.1863 35.2858 57.3687 31.135 58.9951L30.9175 59.0776L30.855 59.1001L30.8375 59.1051L30.83 59.1076C30.8275 59.1076 30.825 59.1076 30 56.7501L29.1725 59.1101L29.1625 59.1051L29.145 59.1001L29.0825 59.0751L28.865 58.9951C27.6859 58.5391 26.5265 58.0337 25.39 57.4801C22.5209 56.0863 19.7918 54.4213 17.24 52.5076C11.335 48.0301 5 40.8176 5 30.5001V10.3501L30 1.6001ZM30 56.7501L29.1725 59.1101L30 59.4001L30.8275 59.1101L30 56.7501ZM30 54.0701L30.0225 54.0601C33.4817 52.6303 36.7466 50.7698 39.74 48.5226C45.085 44.4751 50 38.5576 50 30.5001V13.9001L30 6.9001L10 13.9001V30.5001C10 38.5576 14.915 44.4701 20.26 48.5251C23.26 50.7765 26.5326 52.6396 30 54.0701ZM45.18 21.3576L27.5025 39.0351L16.895 28.4301L20.4325 24.8926L27.5 31.9651L41.6425 17.8226L45.18 21.3576Z" fill="#CFA560"/>
</svg>
