<svg width="30" height="30" viewBox="0 0 30 30" fill="none" xmlns="http://www.w3.org/2000/svg">
<path d="M14.8444 7.96875L17.0531 13.5712L22.6556 15.7819L17.0531 17.9906L14.8444 23.5931L12.6337 17.9906L7.03125 15.7819L12.6337 13.5712L14.8444 7.96875Z" fill="#CFA560"/>
<path d="M14.8444 7.18687C15.1631 7.18687 15.4537 7.38375 15.57 7.68188L17.655 12.9694L22.9425 15.0544C23.088 15.1122 23.2127 15.2124 23.3006 15.3419C23.3885 15.4715 23.4355 15.6244 23.4355 15.7809C23.4355 15.9375 23.3885 16.0904 23.3006 16.22C23.2127 16.3495 23.088 16.4497 22.9425 16.5075L17.655 18.5925L15.57 23.88C15.5122 24.0255 15.412 24.1502 15.2825 24.2381C15.1529 24.326 15 24.373 14.8434 24.373C14.6869 24.373 14.534 24.326 14.4044 24.2381C14.2749 24.1502 14.1747 24.0255 14.1169 23.88L12.0319 18.5925L6.74437 16.5075C6.5989 16.4497 6.47414 16.3495 6.38624 16.22C6.29834 16.0904 6.25135 15.9375 6.25135 15.7809C6.25135 15.6244 6.29834 15.4715 6.38624 15.3419C6.47414 15.2124 6.5989 15.1122 6.74437 15.0544L12.0319 12.9694L14.1169 7.68188C14.1751 7.53633 14.2754 7.41147 14.405 7.32329C14.5346 7.2351 14.6876 7.1876 14.8444 7.18687ZM14.8444 10.0988L13.3612 13.8562C13.3216 13.9558 13.2621 14.0462 13.1864 14.122C13.1106 14.1978 13.0202 14.2573 12.9206 14.2969L9.16125 15.7781L12.9206 17.2631C13.02 17.3025 13.1103 17.3617 13.1861 17.4372C13.2618 17.5126 13.3214 17.6027 13.3612 17.7019L14.8425 21.4631L16.3275 17.7019C16.3671 17.6028 16.4264 17.5129 16.5018 17.4375C16.5773 17.362 16.6672 17.3027 16.7663 17.2631L20.5275 15.78L16.7663 14.2969C16.667 14.2571 16.577 14.1975 16.5015 14.1217C16.4261 14.0459 16.3669 13.9556 16.3275 13.8562L14.8444 10.0988ZM7.81312 5.625L8.80688 7.755L10.9369 8.74875L8.80688 9.74438L7.81312 11.8744L6.81938 9.74438L4.6875 8.75062L6.8175 7.75688L7.81312 5.625Z" fill="#CFA560"/>
</svg>
