<svg width="60" height="61" viewBox="0 0 60 61" fill="none" xmlns="http://www.w3.org/2000/svg">
<path d="M37.5 10.5C38.8261 10.5 40.0979 11.0268 41.0355 11.9645C41.9732 12.9021 42.5 14.1739 42.5 15.5V18H46.3C47.0494 18.0001 47.7892 18.1686 48.4647 18.4932C49.1402 18.8177 49.7341 19.29 50.2025 19.875L53.9025 24.5025C54.6127 25.3892 54.9998 26.4914 55 27.6275V38C55 39.3261 54.4732 40.5979 53.5355 41.5355C52.5979 42.4732 51.3261 43 50 43C50 44.9891 49.2098 46.8968 47.8033 48.3033C46.3968 49.7098 44.4891 50.5 42.5 50.5C40.5109 50.5 38.6032 49.7098 37.1967 48.3033C35.7902 46.8968 35 44.9891 35 43H25C25 43.9849 24.806 44.9602 24.4291 45.8701C24.0522 46.7801 23.4997 47.6069 22.8033 48.3033C22.1069 48.9997 21.2801 49.5522 20.3701 49.9291C19.4602 50.306 18.4849 50.5 17.5 50.5C16.5151 50.5 15.5398 50.306 14.6299 49.9291C13.7199 49.5522 12.8931 48.9997 12.1967 48.3033C11.5003 47.6069 10.9478 46.7801 10.5709 45.8701C10.194 44.9602 10 43.9849 10 43C8.67392 43 7.40215 42.4732 6.46447 41.5355C5.52678 40.5979 5 39.3261 5 38V15.5C5 14.1739 5.52678 12.9021 6.46447 11.9645C7.40215 11.0268 8.67392 10.5 10 10.5H37.5ZM17.5 40.5C16.837 40.5 16.2011 40.7634 15.7322 41.2322C15.2634 41.7011 15 42.337 15 43C15 43.663 15.2634 44.2989 15.7322 44.7678C16.2011 45.2366 16.837 45.5 17.5 45.5C18.163 45.5 18.7989 45.2366 19.2678 44.7678C19.7366 44.2989 20 43.663 20 43C20 42.337 19.7366 41.7011 19.2678 41.2322C18.7989 40.7634 18.163 40.5 17.5 40.5ZM42.5 40.5C41.837 40.5 41.2011 40.7634 40.7322 41.2322C40.2634 41.7011 40 42.337 40 43C40 43.663 40.2634 44.2989 40.7322 44.7678C41.2011 45.2366 41.837 45.5 42.5 45.5C43.163 45.5 43.7989 45.2366 44.2678 44.7678C44.7366 44.2989 45 43.663 45 43C45 42.337 44.7366 41.7011 44.2678 41.2322C43.7989 40.7634 43.163 40.5 42.5 40.5ZM37.5 15.5H10V38H11.91C12.5861 37.2423 13.4092 36.63 14.3293 36.2002C15.2494 35.7704 16.2473 35.5321 17.2623 35.4999C18.2773 35.4676 19.2882 35.642 20.2337 36.0125C21.1793 36.383 22.0396 36.9418 22.7625 37.655L23.09 38H36.91L37.1975 37.6975L37.5 37.41V15.5ZM46.3 23H42.5V35.5C44.55 35.5 46.4075 36.325 47.7625 37.655L48.09 38H50V27.625L46.3 23Z" fill="#CFA560"/>
</svg>
