<svg width="60" height="61" viewBox="0 0 60 61" fill="none" xmlns="http://www.w3.org/2000/svg">
<path d="M30.7 48.5749C32.46 48.4499 34.1967 48.1691 35.91 47.7324C38.0184 48.3643 40.2429 48.508 42.415 48.1524C42.5013 48.1413 42.588 48.1346 42.675 48.1324C43.45 48.1324 44.4675 48.5774 45.95 49.5149V47.9749C45.9504 47.7066 46.0227 47.4433 46.1594 47.2125C46.2962 46.9816 46.4924 46.7917 46.7275 46.6624C47.3725 46.3049 47.9725 45.8874 48.52 45.4324C50.68 43.6249 51.9 41.2174 51.9 38.6674C51.8992 37.8242 51.765 36.9863 51.5025 36.1849C52.1525 34.9849 52.6825 33.7199 53.07 32.4099C54.32 34.2599 54.995 36.4349 55 38.6674C55 42.1324 53.365 45.3674 50.5375 47.7299C50.0645 48.1234 49.5677 48.4875 49.05 48.8199V52.4249C49.05 53.6649 47.6 54.3749 46.5775 53.6399C45.6101 52.9256 44.609 52.2581 43.5775 51.6399C43.2809 51.4656 42.9727 51.3119 42.655 51.1799C41.805 51.3066 40.94 51.3708 40.06 51.3724C36.53 51.3724 33.2675 50.3274 30.7 48.5749ZM12.035 41.3599C7.575 37.6349 5 32.5449 5 27.0999C5 15.9649 15.645 7.06494 28.6425 7.06494C41.64 7.06494 52.2875 15.9649 52.2875 27.0999C52.2875 38.2349 41.64 47.1324 28.6425 47.1324C27.1808 47.1324 25.7408 47.0216 24.3225 46.7999C23.71 46.9424 21.2625 48.3774 17.735 50.9199C16.46 51.8424 14.645 50.9524 14.645 49.3999V43.2499C13.7311 42.6847 12.8589 42.0548 12.035 41.3649M24.41 43.0099C24.515 43.0099 24.6233 43.0183 24.735 43.0349C26.0265 43.2491 27.3334 43.3561 28.6425 43.3549C39.6225 43.3549 48.41 36.0074 48.41 27.0999C48.41 18.1924 39.6225 10.8474 28.6425 10.8474C17.6675 10.8474 8.875 18.1949 8.875 27.0999C8.875 31.4074 10.9275 35.4624 14.5575 38.4974C15.4742 39.2608 16.4708 39.9449 17.5475 40.5499C18.15 40.8874 18.5225 41.5124 18.5225 42.1874V45.7349C21.3125 43.8849 23.1475 43.0099 24.4075 43.0099" fill="#CFA560"/>
<path d="M19.0625 30.5C19.8913 30.5 20.6862 30.1708 21.2722 29.5847C21.8583 28.9987 22.1875 28.2038 22.1875 27.375C22.1875 26.5462 21.8583 25.7513 21.2722 25.1653C20.6862 24.5792 19.8913 24.25 19.0625 24.25C18.2337 24.25 17.4388 24.5792 16.8528 25.1653C16.2667 25.7513 15.9375 26.5462 15.9375 27.375C15.9375 28.2038 16.2667 28.9987 16.8528 29.5847C17.4388 30.1708 18.2337 30.5 19.0625 30.5ZM29.2175 30.5C30.0463 30.5 30.8412 30.1708 31.4272 29.5847C32.0133 28.9987 32.3425 28.2038 32.3425 27.375C32.3425 26.5462 32.0133 25.7513 31.4272 25.1653C30.8412 24.5792 30.0463 24.25 29.2175 24.25C28.3887 24.25 27.5938 24.5792 27.0078 25.1653C26.4217 25.7513 26.0925 26.5462 26.0925 27.375C26.0925 28.2038 26.4217 28.9987 27.0078 29.5847C27.5938 30.1708 28.3887 30.5 29.2175 30.5ZM39.375 30.5025C40.2038 30.5025 40.9987 30.1733 41.5847 29.5872C42.1708 29.0012 42.5 28.2063 42.5 27.3775C42.5 26.5487 42.1708 25.7538 41.5847 25.1678C40.9987 24.5817 40.2038 24.2525 39.375 24.2525C38.5462 24.2525 37.7513 24.5817 37.1653 25.1678C36.5792 25.7538 36.25 26.5487 36.25 27.3775C36.25 28.2063 36.5792 29.0012 37.1653 29.5872C37.7513 30.1733 38.5462 30.5025 39.375 30.5025Z" fill="#CFA560"/>
</svg>
