<svg width="24" height="24" viewBox="0 0 24 24" fill="none" xmlns="http://www.w3.org/2000/svg">
<path d="M13.9321 12.2916C13.9249 12.6717 13.8049 13.0412 13.5875 13.353C13.3701 13.6649 13.0649 13.9052 12.7107 14.0435C12.3566 14.1818 11.9693 14.2118 11.5981 14.1297C11.2268 14.0476 10.8883 13.8572 10.6254 13.5825C10.3625 13.3078 10.1871 12.9613 10.1214 12.5868C10.0557 12.2123 10.1027 11.8268 10.2563 11.479C10.41 11.1312 10.6635 10.8369 10.9846 10.6334C11.3057 10.4298 11.6801 10.3262 12.0602 10.3356C12.5652 10.3543 13.0432 10.569 13.3926 10.9341C13.7421 11.2993 13.9356 11.7862 13.9321 12.2916Z" fill="#CFA560"/>
<path d="M15.3156 6.27966H8.80572C8.16157 6.27966 7.54381 6.53555 7.08832 6.99103C6.63284 7.44652 6.37695 8.06428 6.37695 8.70843V15.3647C6.37695 15.6837 6.43977 15.9995 6.56183 16.2942C6.68389 16.5889 6.86279 16.8566 7.08832 17.0821C7.31386 17.3077 7.5816 17.4866 7.87627 17.6086C8.17094 17.7307 8.48677 17.7935 8.80572 17.7935H15.3156C15.6346 17.7935 15.9504 17.7307 16.2451 17.6086C16.5398 17.4866 16.8075 17.3077 17.033 17.0821C17.2586 16.8566 17.4375 16.5889 17.5595 16.2942C17.6816 15.9995 17.7444 15.6837 17.7444 15.3647V8.72043C17.7457 8.40056 17.6838 8.08359 17.5623 7.78767C17.4409 7.49176 17.2622 7.22272 17.0366 6.99598C16.811 6.76924 16.5428 6.58925 16.2475 6.46633C15.9522 6.34341 15.6355 6.27998 15.3156 6.27966ZM12.0601 15.5471C11.4156 15.5617 10.7815 15.3839 10.2386 15.0364C9.69561 14.689 9.26851 14.1877 9.01175 13.5964C8.75499 13.0052 8.68022 12.3508 8.79698 11.7169C8.91375 11.0829 9.21675 10.4982 9.66732 10.0372C10.1179 9.57622 10.6956 9.25995 11.3267 9.12875C11.9578 8.99755 12.6137 9.05737 13.2106 9.30057C13.8076 9.54376 14.3186 9.95932 14.6783 10.4942C15.0381 11.0291 15.2303 11.659 15.2304 12.3036C15.2357 12.7248 15.1578 13.143 15.0012 13.5341C14.8446 13.9252 14.6125 14.2816 14.318 14.5829C14.0235 14.8842 13.6725 15.1244 13.2851 15.2899C12.8976 15.4553 12.4813 15.5428 12.0601 15.5471ZM15.5832 9.06123C15.5041 9.06124 15.4257 9.04546 15.3527 9.0148C15.2797 8.98414 15.2135 8.93923 15.1581 8.88268C15.1026 8.82613 15.0591 8.7591 15.0299 8.68549C15.0007 8.61189 14.9864 8.5332 14.988 8.45404C14.988 8.293 15.052 8.13856 15.1659 8.02469C15.2798 7.91082 15.4342 7.84684 15.5952 7.84684C15.7563 7.84684 15.9107 7.91082 16.0246 8.02469C16.1385 8.13856 16.2024 8.293 16.2024 8.45404C16.2048 8.53976 16.1886 8.62498 16.155 8.70388C16.1214 8.78277 16.0712 8.85347 16.0077 8.91113C15.9442 8.9688 15.869 9.01206 15.7873 9.03797C15.7055 9.06387 15.6191 9.07181 15.534 9.06123H15.5832Z" fill="#CFA560"/>
<path d="M12.06 0.000150207C8.87744 -0.0157626 5.81891 1.23324 3.55725 3.4724C1.29559 5.71156 0.016063 8.75744 0.000150207 11.94C-0.0157626 15.1226 1.23324 18.1811 3.4724 20.4428C5.71156 22.7044 8.75744 23.9839 11.94 23.9999C13.5158 24.0077 15.0778 23.7051 16.5367 23.1094C17.9956 22.5136 19.3229 21.6363 20.4428 20.5276C21.5626 19.4189 22.4531 18.1005 23.0635 16.6476C23.6738 15.1947 23.992 13.6358 23.9999 12.06C24.0077 10.4842 23.7051 8.92219 23.1094 7.46329C22.5136 6.00438 21.6363 4.67711 20.5276 3.55725C19.4189 2.43739 18.1005 1.54687 16.6476 0.936545C15.1947 0.326217 13.6358 0.00802942 12.06 0.000150207ZM19.3475 15.2424C19.3509 15.7807 19.2473 16.3144 19.0429 16.8124C18.8384 17.3104 18.5372 17.7629 18.1565 18.1437C17.7759 18.5244 17.3235 18.8258 16.8255 19.0304C16.3275 19.235 15.7939 19.3387 15.2556 19.3355H8.86684C8.32849 19.3389 7.79483 19.2353 7.29679 19.0309C6.79875 18.8264 6.34625 18.5252 5.96552 18.1445C5.58478 17.7639 5.28338 17.3115 5.0788 16.8135C4.87421 16.3155 4.7705 15.7819 4.77369 15.2436V8.85364C4.77035 8.31529 4.8739 7.78162 5.07834 7.28359C5.28278 6.78555 5.58404 6.33305 5.96467 5.95232C6.34529 5.57158 6.7977 5.27018 7.29568 5.0656C7.79365 4.86101 8.32729 4.7573 8.86564 4.76049H15.2556C15.7938 4.75731 16.3273 4.86097 16.8252 5.06549C17.3231 5.27 17.7755 5.57129 18.1561 5.95189C18.5367 6.3325 18.838 6.78486 19.0425 7.28276C19.247 7.78065 19.3507 8.31419 19.3475 8.85244V15.2424Z" fill="#CFA560"/>
</svg>
