<svg width="64" height="64" viewBox="0 0 64 64" fill="none" xmlns="http://www.w3.org/2000/svg">
<path d="M29.01 11.7461C21.1367 16.7874 17.2 22.8588 17.2 29.9601C17.2 32.1694 17.5847 33.2741 18.354 33.2741L19.146 33.0601C19.7687 32.8201 20.2727 32.7001 20.658 32.7001C22.914 32.7001 24.7974 33.5201 26.308 35.1601C27.8187 36.8001 28.5747 38.8241 28.576 41.2321C28.5747 43.5468 27.758 45.5114 26.126 47.1261C24.494 48.7394 22.526 49.5461 20.222 49.5461C17.006 49.5461 14.3527 48.2241 12.262 45.5801C10.1767 42.9401 9.13403 39.6221 9.13403 35.6261C9.1327 31.1061 10.0194 26.9708 11.794 23.2201C13.5727 19.4708 16.2847 16.0808 19.93 13.0501C23.578 10.0221 25.906 8.50744 26.914 8.5061C27.586 8.5061 28.138 8.8301 28.57 9.4781C29.002 10.1248 29.218 10.6881 29.218 11.1681L29.004 11.7441L29.01 11.7461ZM54.93 11.7461C47.0567 16.7861 43.1207 22.8581 43.122 29.9621C43.122 32.1714 43.5067 33.2761 44.276 33.2761L45.068 33.0621C45.6907 32.8221 46.1947 32.7021 46.58 32.7021C48.788 32.7021 50.6594 33.5221 52.194 35.1621C53.7314 36.7994 54.4994 38.8234 54.498 41.2341C54.4967 43.5488 53.68 45.5134 52.048 47.1281C50.416 48.7414 48.448 49.5481 46.144 49.5481C42.928 49.5481 40.2747 48.2261 38.184 45.5821C36.0987 42.9421 35.056 39.6241 35.056 35.6281C35.0534 31.0601 35.9534 26.8894 37.756 23.1161C39.556 19.3414 42.2674 15.9634 45.89 12.9821C49.5194 9.99944 51.836 8.5081 52.84 8.5081C53.5134 8.5081 54.0667 8.8321 54.5 9.4801C54.9307 10.1281 55.146 10.6921 55.146 11.1721L54.93 11.7461Z" fill="#CFA560"/>
</svg>
