<svg width="60" height="61" viewBox="0 0 60 61" fill="none" xmlns="http://www.w3.org/2000/svg">
<path d="M21.25 30.5C23 30.5 24.4583 29.8642 25.625 28.5925C26.7917 27.3208 27.6042 25.8108 28.0625 24.0625L24.4375 23.1875C24.2292 24.1042 23.8642 24.9275 23.3425 25.6575C22.8208 26.3875 22.1233 26.7517 21.25 26.75C20.3767 26.7483 19.6792 26.3842 19.1575 25.6575C18.6358 24.9308 18.2708 24.1075 18.0625 23.1875L14.4375 24.0625C14.8958 25.8125 15.7083 27.3233 16.875 28.595C18.0417 29.8667 19.5 30.5017 21.25 30.5ZM30 44.25C31.625 44.25 33.1875 43.8858 34.6875 43.1575C36.1875 42.4292 37.5833 41.335 38.875 39.875L36.125 37.375C35.2083 38.375 34.2292 39.1358 33.1875 39.6575C32.1458 40.1792 31.0833 40.4383 30 40.435C28.9167 40.4317 27.8542 40.1717 26.8125 39.655C25.7708 39.1383 24.7917 38.3775 23.875 37.3725L21.125 39.8725C22.4583 41.3308 23.865 42.425 25.345 43.155C26.825 43.885 28.3767 44.25 30 44.25ZM38.75 30.5C40.5 30.5 41.9583 29.8642 43.125 28.5925C44.2917 27.3208 45.1042 25.8108 45.5625 24.0625L41.9375 23.1875C41.7292 24.1042 41.365 24.9275 40.845 25.6575C40.325 26.3875 39.6267 26.7517 38.75 26.75C37.8733 26.7483 37.1758 26.3842 36.6575 25.6575C36.1392 24.9308 35.7742 24.1075 35.5625 23.1875L31.9375 24.0625C32.3958 25.8125 33.2083 27.3233 34.375 28.595C35.5417 29.8667 37 30.5017 38.75 30.5ZM30 55.5C26.5417 55.5 23.2917 54.8433 20.25 53.53C17.2083 52.2167 14.5625 50.4358 12.3125 48.1875C10.0625 45.9392 8.28167 43.2933 6.97 40.25C5.65834 37.2067 5.00167 33.9567 5 30.5C4.99834 27.0433 5.655 23.7933 6.97 20.75C8.285 17.7067 10.0658 15.0608 12.3125 12.8125C14.5592 10.5642 17.205 8.78333 20.25 7.47C23.295 6.15667 26.545 5.5 30 5.5C33.455 5.5 36.705 6.15667 39.75 7.47C42.795 8.78333 45.4408 10.5642 47.6875 12.8125C49.9342 15.0608 51.7158 17.7067 53.0325 20.75C54.3492 23.7933 55.005 27.0433 55 30.5C54.995 33.9567 54.3383 37.2067 53.03 40.25C51.7217 43.2933 49.9408 45.9392 47.6875 48.1875C45.4342 50.4358 42.7883 52.2175 39.75 53.5325C36.7117 54.8475 33.4617 55.5033 30 55.5ZM30 50.5C35.5833 50.5 40.3125 48.5625 44.1875 44.6875C48.0625 40.8125 50 36.0833 50 30.5C50 24.9167 48.0625 20.1875 44.1875 16.3125C40.3125 12.4375 35.5833 10.5 30 10.5C24.4167 10.5 19.6875 12.4375 15.8125 16.3125C11.9375 20.1875 10 24.9167 10 30.5C10 36.0833 11.9375 40.8125 15.8125 44.6875C19.6875 48.5625 24.4167 50.5 30 50.5Z" fill="#CFA560"/>
</svg>
